<?xml version="1.0" standalone="no"?>
<!DOCTYPE svg PUBLIC "-//W3C//DTD SVG 20010904//EN"
 "http://www.w3.org/TR/2001/REC-SVG-20010904/DTD/svg10.dtd">
<svg version="1.0" xmlns="http://www.w3.org/2000/svg"
 width="700.000000pt" height="700.000000pt" viewBox="0 0 700.000000 700.000000"
 preserveAspectRatio="xMidYMid meet">
<metadata>
Created by potrace 1.11, written by Peter Selinger 2001-2013
</metadata>
<g transform="translate(0.000000,700.000000) scale(0.100000,-0.100000)"
fill="#000000" stroke="none">
<path d="M740 5372 c-33 -11 -41 -56 -12 -67 9 -4 31 -9 47 -11 64 -10 77 -17
157 -87 189 -167 450 -360 506 -374 28 -7 28 -8 -8 -53 -16 -21 -30 -42 -30
-47 0 -5 30 -31 66 -58 111 -81 123 -103 84 -153 -31 -39 -11 -49 48 -24 79
34 72 38 414 -221 110 -83 207 -162 215 -174 14 -21 14 -25 -1 -42 -34 -37
-12 -54 58 -45 55 8 102 -13 218 -96 82 -59 110 -84 237 -217 81 -86 78 -108
-15 -142 -47 -18 -358 -102 -501 -136 -10 -3 -38 -9 -63 -16 -25 -6 -52 -12
-60 -14 -236 -54 -295 -65 -310 -60 -32 10 -133 157 -306 445 -76 126 -176
271 -204 297 -17 15 -43 31 -56 35 -25 7 -118 -17 -169 -44 l-29 -16 -2 -394
c-1 -355 -4 -436 -20 -490 -4 -15 -9 -15 -42 -4 -45 16 -186 83 -422 201 -197
98 -358 169 -410 180 -40 9 -120 13 -120 5 0 -10 75 -69 330 -257 304 -225
410 -309 410 -326 0 -7 -27 -40 -60 -75 -68 -73 -79 -96 -55 -122 16 -18 96
-44 169 -56 21 -3 48 -8 60 -10 37 -7 68 -13 163 -28 63 -10 105 -23 135 -42
41 -26 151 -108 193 -145 161 -141 244 -182 306 -149 26 14 24 38 -12 143 -35
102 -33 106 41 108 25 0 59 2 75 4 31 3 258 12 520 20 303 10 488 26 590 54
22 6 58 13 80 16 22 4 51 9 65 12 42 9 640 11 715 2 81 -10 186 -58 266 -120
49 -39 51 -43 45 -79 -3 -20 -3 -39 0 -43 3 -3 38 4 77 14 39 11 81 18 93 15
52 -13 192 -204 181 -247 -5 -20 6 -32 37 -36 67 -11 204 -180 209 -258 1 -19
5 -36 10 -36 4 -1 42 2 85 6 46 4 88 2 104 -4 31 -12 154 -152 201 -228 18
-29 38 -53 45 -53 21 0 133 58 170 89 l34 27 -71 212 c-39 116 -71 218 -71
227 0 26 42 43 200 85 85 22 169 50 186 62 43 30 95 118 101 172 7 54 -19 142
-52 179 -14 15 -44 35 -67 43 -42 14 -165 19 -236 9 -18 -2 -80 -7 -137 -10
-153 -9 -164 -1 -219 157 -28 77 -35 126 -22 147 11 17 104 74 161 98 95 40
271 92 520 153 526 131 926 252 1101 335 115 54 255 179 295 263 47 97 4 159
-176 253 -91 47 -144 77 -175 99 -64 44 -134 69 -245 87 -63 10 -360 10 -440
0 -126 -15 -151 -19 -185 -27 -19 -5 -51 -12 -70 -15 -19 -3 -64 -13 -100 -21
-36 -9 -72 -17 -80 -19 -60 -14 -328 -77 -340 -80 -8 -2 -64 -15 -125 -30 -60
-14 -247 -60 -415 -101 -168 -42 -312 -77 -321 -79 -9 -2 -33 -8 -53 -13 -50
-14 -68 -7 -99 43 -41 64 -88 80 -220 72 -56 -4 -115 -9 -132 -11 -55 -9 -243
-36 -294 -42 -43 -5 -58 -2 -93 19 -24 13 -74 41 -113 62 -38 21 -87 49 -107
62 -21 13 -39 23 -42 23 -3 0 -99 52 -201 110 -22 12 -114 63 -205 113 -91 49
-169 93 -175 97 -5 4 -48 28 -95 52 -47 25 -141 77 -210 115 -69 38 -159 88
-200 110 -128 69 -567 316 -725 408 -204 119 -324 169 -455 190 -19 3 -58 9
-85 13 -28 5 -57 6 -65 4z"/>
</g>
</svg>
